<svg width="171" height="172" viewBox="0 0 171 172" fill="none" xmlns="http://www.w3.org/2000/svg">
<path fill-rule="evenodd" clip-rule="evenodd" d="M60 86.1772C73.8071 86.1772 85 74.4077 85 59.8893C85 74.4077 96.1929 86.1772 110 86.1772C96.1929 86.1772 85 97.9467 85 112.465C85 97.9467 73.8071 86.1772 60 86.1772Z" fill="#292727"/>
<path d="M87.5315 14.069C87.3545 14.0594 87.2086 13.9907 87.0941 13.863C86.9795 13.7353 86.927 13.5829 86.9366 13.4058L87.4044 4.78047C87.414 4.6034 87.4826 4.45757 87.6104 4.34299C87.7386 4.21909 87.8913 4.16194 88.0683 4.17155C88.2454 4.18116 88.391 4.25449 88.5051 4.39154C88.629 4.51978 88.6861 4.67243 88.6765 4.84951L88.2087 13.4748C88.1991 13.6519 88.1258 13.7975 87.9887 13.9116C87.861 14.0261 87.7086 14.0786 87.5315 14.069Z" fill="#292727"/>
<path d="M95.379 14.5318C95.2057 14.4943 95.0726 14.4034 94.9796 14.2591C94.8867 14.1148 94.859 13.9561 94.8965 13.7827L96.6637 5.61368C96.7169 5.36738 96.849 5.17632 97.0598 5.04052C97.2726 4.89559 97.5021 4.84978 97.7484 4.90309L97.9263 4.9416C98.2182 5.00478 98.4395 5.19592 98.5901 5.515L102.212 14.2633L103.811 6.87424C103.848 6.70092 103.939 6.5678 104.083 6.47488C104.23 6.37283 104.389 6.34057 104.563 6.37809C104.736 6.4156 104.868 6.51105 104.959 6.66443C105.061 6.81067 105.093 6.97045 105.056 7.14377L103.289 15.3128C103.235 15.5591 103.099 15.7492 102.879 15.883C102.668 16.0188 102.44 16.0601 102.193 16.0068L102.029 15.9712C101.883 15.9396 101.753 15.8781 101.639 15.7866C101.527 15.686 101.442 15.572 101.384 15.4448L97.7431 6.64949L96.1416 14.0523C96.1042 14.2256 96.0087 14.3577 95.8554 14.4487C95.7111 14.5416 95.5523 14.5693 95.379 14.5318Z" fill="#292727"/>
<path d="M112.177 19.1611C112.014 19.091 111.901 18.9763 111.837 18.8169C111.773 18.6574 111.777 18.4963 111.847 18.3334L115.014 10.9633L112.391 9.83491C112.237 9.76854 112.13 9.66178 112.071 9.51463C112.013 9.36748 112.017 9.21673 112.083 9.06238C112.149 8.90804 112.256 8.80154 112.403 8.74289C112.554 8.67567 112.706 8.67525 112.861 8.74162L119.266 11.4962C119.42 11.5626 119.525 11.6736 119.579 11.8294C119.647 11.9802 119.647 12.1328 119.581 12.2871C119.514 12.4415 119.403 12.5461 119.248 12.6011C119.101 12.6597 118.95 12.6559 118.796 12.5895L116.185 11.4666L113.017 18.8367C112.947 18.9996 112.828 19.111 112.66 19.1709C112.501 19.2344 112.34 19.2311 112.177 19.1611Z" fill="#292727"/>
<path d="M121.429 23.448C121.281 23.3505 121.189 23.2177 121.155 23.0496C121.12 22.8816 121.151 22.7235 121.249 22.5753L125.918 15.4748C126.015 15.3267 126.148 15.2352 126.316 15.2005C126.489 15.1581 126.65 15.1856 126.798 15.283L131.488 18.3688C131.628 18.4612 131.712 18.5888 131.739 18.7518C131.779 18.912 131.752 19.0624 131.66 19.2027C131.568 19.3431 131.44 19.4267 131.277 19.4536C131.122 19.4856 130.974 19.4555 130.834 19.3631L126.682 16.6313L124.982 19.2165L128.713 21.6713C128.853 21.7636 128.937 21.8913 128.964 22.0542C129.004 22.2145 128.978 22.3648 128.885 22.5052C128.793 22.6455 128.665 22.7292 128.502 22.7561C128.347 22.7881 128.2 22.7579 128.059 22.6656L124.328 20.2108L122.621 22.8077L126.773 25.5395C126.913 25.6318 126.997 25.7595 127.024 25.9224C127.063 26.0827 127.037 26.233 126.945 26.3734C126.853 26.5137 126.725 26.5974 126.562 26.6243C126.407 26.6563 126.259 26.6261 126.119 26.5338L121.429 23.448Z" fill="#292727"/>
<path d="M131.95 30.8618C131.822 30.7387 131.757 30.5914 131.753 30.4199C131.75 30.2483 131.81 30.0986 131.933 29.9708L137.874 23.7975C137.997 23.6698 138.145 23.6043 138.316 23.601C138.494 23.591 138.647 23.6475 138.775 23.7705L141.124 26.0333C142.039 26.9138 142.543 27.7625 142.638 28.5793C142.733 29.3962 142.485 30.1105 141.896 30.7225C141.508 31.126 141.038 31.3858 140.486 31.5019C139.947 31.6177 139.391 31.5425 138.818 31.2761C139.179 31.87 139.217 32.4898 138.933 33.1356C138.661 33.7812 138.305 34.3326 137.865 34.7898L137.419 35.2538C137.296 35.3816 137.148 35.4471 136.977 35.4504C136.805 35.4536 136.656 35.3938 136.528 35.2707C136.387 35.1348 136.311 34.9844 136.302 34.8195C136.305 34.6544 136.372 34.5046 136.501 34.3701L136.792 34.0675C137.116 33.7313 137.383 33.3928 137.595 33.0521C137.812 32.7046 137.914 32.3099 137.899 31.8679C137.89 31.4191 137.654 30.9714 137.19 30.5246L135.103 28.5144L132.851 30.8546C132.728 30.9823 132.577 31.0446 132.399 31.0414C132.227 31.0446 132.078 30.9848 131.95 30.8618ZM137.763 29.4046C138.341 29.9614 138.908 30.2874 139.465 30.3824C140.027 30.484 140.51 30.3263 140.911 29.9094C141.299 29.5059 141.449 29.0541 141.36 28.5541C141.278 28.0605 140.884 27.4738 140.179 26.794L138.404 25.0848L135.938 27.6469L137.763 29.4046Z" fill="#292727"/>
<path d="M141.319 40.2548C141.212 40.1019 141.174 39.9409 141.204 39.7719C141.239 39.6105 141.329 39.479 141.474 39.3773C141.535 39.3345 141.625 39.3 141.744 39.274L150.694 37.3652C150.875 37.33 151.045 37.3365 151.204 37.3847C151.376 37.4351 151.518 37.5407 151.63 37.7013L151.71 37.816C151.823 37.9766 151.871 38.1425 151.854 38.3138C151.85 38.4874 151.801 38.653 151.706 38.8105L146.849 46.5694C146.784 46.6719 146.72 46.7445 146.659 46.7874C146.514 46.8891 146.357 46.925 146.188 46.8952C146.024 46.873 145.889 46.7855 145.782 46.6325C145.707 46.5255 145.664 46.4073 145.654 46.2781C145.656 46.1511 145.691 46.0299 145.758 45.9144L147.025 43.9162L144.296 40.0162L141.986 40.5232C141.854 40.5469 141.726 40.5343 141.6 40.4854C141.488 40.4387 141.394 40.3619 141.319 40.2548ZM145.529 39.7512L147.696 42.8483L150.34 38.6901L145.529 39.7512Z" fill="#292727"/>
<path d="M150.907 56.0581C150.528 55.2049 150.371 54.3556 150.436 53.5102C150.512 52.6696 150.809 51.8998 151.326 51.2008C151.855 50.5065 152.585 49.9531 153.515 49.5406C154.445 49.1281 155.341 48.9606 156.202 49.0381C157.076 49.1202 157.845 49.417 158.511 49.9283C159.189 50.4444 159.717 51.1291 160.095 51.9824C160.352 52.5626 160.513 53.1091 160.577 53.6219C160.645 54.1432 160.651 54.6867 160.595 55.2524C160.576 55.4856 160.456 55.6513 160.234 55.7497C160.106 55.8065 159.97 55.8107 159.826 55.7622C159.69 55.71 159.589 55.6071 159.521 55.4535C159.483 55.3682 159.466 55.2838 159.47 55.2004C159.499 54.7379 159.486 54.3048 159.43 53.901C159.373 53.4972 159.241 53.0607 159.033 52.5914C158.708 51.8576 158.276 51.2986 157.738 50.9143C157.213 50.5348 156.627 50.3301 155.98 50.3003C155.347 50.2751 154.697 50.4102 154.031 50.7053C153.366 51.0005 152.825 51.3934 152.41 51.884C152.007 52.3794 151.765 52.9511 151.685 53.5993C151.617 54.2523 151.746 54.9456 152.071 55.6794C152.279 56.1487 152.514 56.5399 152.775 56.8528C153.036 57.1658 153.348 57.4664 153.711 57.7548C153.775 57.808 153.826 57.8772 153.864 57.9625C153.932 58.1161 153.94 58.2606 153.888 58.3961C153.836 58.5316 153.741 58.6296 153.605 58.6902C153.383 58.7886 153.179 58.7666 152.994 58.6243C152.537 58.2856 152.139 57.9162 151.798 57.5159C151.461 57.1243 151.164 56.6383 150.907 56.0581Z" fill="#292727"/>
<path d="M155.139 67.5178C155.098 67.3453 155.122 67.186 155.211 67.0397C155.301 66.8934 155.432 66.7996 155.605 66.7582L163.405 64.8875L162.74 62.1101C162.701 61.9468 162.723 61.7976 162.805 61.6625C162.888 61.5275 163.011 61.4404 163.175 61.4012C163.338 61.362 163.487 61.3838 163.622 61.4666C163.766 61.5473 163.858 61.6692 163.897 61.8326L165.522 68.6126C165.561 68.776 165.535 68.9263 165.443 69.0635C165.362 69.2076 165.24 69.2993 165.077 69.3384C164.913 69.3776 164.763 69.3513 164.626 69.2594C164.491 69.1766 164.404 69.0535 164.365 68.8901L163.702 66.1264L155.902 67.9971C155.729 68.0385 155.569 68.0098 155.42 67.911C155.274 67.8213 155.18 67.6902 155.139 67.5178Z" fill="#292727"/>
<path d="M157.055 77.4275C157.038 77.251 157.084 77.0966 157.193 76.9643C157.303 76.832 157.445 76.7574 157.622 76.7406L166.221 75.9204C166.398 75.9036 166.552 75.9498 166.684 76.059C166.826 76.1674 166.905 76.3099 166.922 76.4864C166.939 76.6629 166.888 76.8178 166.769 76.951C166.661 77.0926 166.518 77.1718 166.342 77.1886L157.743 78.0088C157.566 78.0256 157.412 77.9748 157.278 77.8562C157.146 77.747 157.071 77.6041 157.055 77.4275Z" fill="#292727"/>
<path d="M157.564 88.1278C157.585 87.7457 157.815 87.4683 158.254 87.2955L166.813 84.2917C166.889 84.2677 166.969 84.258 167.053 84.2625C167.249 84.273 167.399 84.3372 167.505 84.455C167.62 84.5733 167.673 84.7304 167.662 84.9261C167.655 85.0566 167.607 85.1708 167.518 85.2688C167.437 85.3767 167.33 85.4551 167.197 85.504L158.828 88.3498L166.844 92.0745C166.972 92.1375 167.07 92.2222 167.139 92.3287C167.217 92.445 167.252 92.5684 167.245 92.6989C167.235 92.8946 167.166 93.0452 167.039 93.1505C166.921 93.2564 166.764 93.304 166.569 93.2935C166.485 93.289 166.406 93.2708 166.333 93.2388L158.144 89.3366C157.726 89.1179 157.527 88.8175 157.548 88.4354L157.564 88.1278Z" fill="#292727"/>
<path d="M156.636 99.0115C156.678 98.8391 156.772 98.7082 156.918 98.6187C157.064 98.5292 157.224 98.5053 157.396 98.547L165.657 100.542C165.829 100.584 165.96 100.678 166.049 100.824C166.148 100.973 166.176 101.133 166.135 101.306L164.818 106.763C164.778 106.926 164.686 107.048 164.542 107.129C164.405 107.22 164.254 107.246 164.091 107.207C163.928 107.167 163.806 107.076 163.726 106.931C163.643 106.796 163.621 106.647 163.661 106.484L164.827 101.652L161.819 100.926L160.772 105.267C160.732 105.431 160.64 105.552 160.496 105.633C160.359 105.724 160.208 105.751 160.045 105.711C159.882 105.672 159.76 105.58 159.68 105.436C159.597 105.3 159.575 105.151 159.615 104.988L160.663 100.647L157.642 99.9169L156.475 104.748C156.436 104.911 156.344 105.033 156.2 105.114C156.063 105.205 155.912 105.231 155.749 105.192C155.586 105.153 155.464 105.061 155.383 104.916C155.301 104.781 155.279 104.632 155.319 104.469L156.636 99.0115Z" fill="#292727"/>
<path d="M148.33 121.437C148.797 120.628 149.39 120.001 150.111 119.556C150.836 119.123 151.633 118.91 152.502 118.916C153.374 118.935 154.251 119.2 155.132 119.709C156.013 120.218 156.675 120.843 157.12 121.585C157.568 122.34 157.781 123.137 157.76 123.976C157.742 124.829 157.499 125.659 157.033 126.467C156.715 127.016 156.368 127.468 155.991 127.822C155.61 128.183 155.174 128.508 154.684 128.796C154.485 128.918 154.28 128.918 154.07 128.797C153.949 128.727 153.865 128.619 153.82 128.474C153.782 128.334 153.805 128.191 153.889 128.046C153.936 127.965 153.994 127.902 154.064 127.856C154.455 127.607 154.797 127.342 155.09 127.058C155.383 126.775 155.658 126.411 155.915 125.966C156.316 125.271 156.514 124.593 156.508 123.932C156.505 123.284 156.326 122.69 155.97 122.149C155.617 121.622 155.125 121.176 154.495 120.812C153.864 120.448 153.229 120.242 152.588 120.195C151.95 120.16 151.346 120.302 150.775 120.618C150.207 120.948 149.723 121.46 149.321 122.155C149.064 122.6 148.886 123.02 148.787 123.415C148.688 123.811 148.629 124.24 148.609 124.703C148.604 124.786 148.578 124.868 148.532 124.949C148.448 125.095 148.336 125.186 148.195 125.224C148.055 125.261 147.92 125.243 147.791 125.168C147.581 125.046 147.479 124.869 147.485 124.635C147.49 124.067 147.553 123.527 147.676 123.016C147.794 122.512 148.012 121.986 148.33 121.437Z" fill="#292727"/>
<path d="M140.755 132.454C141.402 131.718 142.131 131.216 142.94 130.946C143.75 130.677 144.571 130.641 145.403 130.84C146.236 131.039 147.026 131.455 147.773 132.089C148.496 132.751 149.008 133.482 149.31 134.283C149.612 135.084 149.681 135.903 149.515 136.741C149.35 137.578 148.944 138.364 148.296 139.099C147.648 139.835 146.923 140.334 146.12 140.596C145.31 140.866 144.486 140.898 143.646 140.693C142.808 140.502 142.018 140.092 141.277 139.464C140.562 138.808 140.052 138.073 139.749 137.259C139.448 136.458 139.379 135.639 139.544 134.802C139.703 133.972 140.107 133.189 140.755 132.454ZM141.647 133.24C141.154 133.801 140.851 134.398 140.739 135.034C140.627 135.669 140.693 136.287 140.936 136.887C141.179 137.486 141.573 138.027 142.12 138.508C142.666 138.989 143.251 139.313 143.877 139.478C144.502 139.644 145.123 139.631 145.739 139.44C146.355 139.249 146.91 138.873 147.403 138.313C147.903 137.745 148.209 137.144 148.321 136.509C148.426 135.88 148.358 135.266 148.115 134.666C147.872 134.067 147.477 133.526 146.931 133.045C146.385 132.564 145.799 132.24 145.174 132.075C144.548 131.909 143.931 131.919 143.321 132.103C142.705 132.294 142.147 132.673 141.647 133.24Z" fill="#292727"/>
<path d="M132.582 141.045C132.774 140.896 132.991 140.833 133.234 140.857C133.475 140.894 133.671 141.008 133.819 141.2L138.921 147.767C139.03 147.907 139.074 148.062 139.052 148.233C139.037 148.41 138.959 148.554 138.819 148.662C138.679 148.771 138.521 148.811 138.345 148.782C138.167 148.767 138.024 148.689 137.915 148.549L133.054 142.291L129.44 145.101C129.3 145.21 129.142 145.25 128.966 145.221C128.788 145.205 128.645 145.127 128.536 144.987C128.427 144.847 128.387 144.689 128.416 144.513C128.437 144.343 128.518 144.204 128.658 144.095L132.582 141.045Z" fill="#292727"/>
<path d="M122.898 148.077C123.111 147.961 123.336 147.935 123.572 147.998C123.804 148.074 123.978 148.218 124.093 148.432L128.058 155.742C128.142 155.898 128.16 156.058 128.111 156.223C128.067 156.395 127.967 156.524 127.811 156.609C127.655 156.693 127.493 156.707 127.324 156.65C127.151 156.606 127.022 156.506 126.938 156.35L123.161 149.384L119.137 151.567C118.981 151.652 118.818 151.666 118.649 151.609C118.477 151.564 118.348 151.464 118.264 151.308C118.179 151.152 118.165 150.99 118.222 150.821C118.271 150.656 118.374 150.532 118.529 150.447L122.898 148.077Z" fill="#292727"/>
<path d="M113.303 153.047C113.481 152.989 113.646 152.999 113.799 153.077C113.943 153.158 114.042 153.282 114.097 153.451C114.121 153.522 114.127 153.618 114.118 153.739L113.338 162.859C113.319 163.042 113.263 163.202 113.171 163.341C113.073 163.49 112.93 163.596 112.744 163.657L112.611 163.7C112.425 163.761 112.252 163.758 112.093 163.692C111.928 163.638 111.784 163.543 111.661 163.406L105.653 156.502C105.574 156.41 105.523 156.328 105.5 156.257C105.445 156.089 105.456 155.928 105.534 155.775C105.603 155.625 105.726 155.521 105.903 155.463C106.028 155.422 106.153 155.416 106.28 155.443C106.401 155.482 106.506 155.551 106.597 155.649L108.14 157.443L112.665 155.966L112.852 153.607C112.868 153.474 112.917 153.355 113.001 153.249C113.078 153.155 113.179 153.088 113.303 153.047ZM112.559 157.222L108.966 158.395L112.174 162.134L112.559 157.222Z" fill="#292727"/>
<path d="M98.8901 157.356C99.0662 157.335 99.2217 157.377 99.3567 157.483C99.4918 157.589 99.5699 157.73 99.5912 157.906L100.612 166.343C100.633 166.519 100.591 166.674 100.485 166.809C100.38 166.954 100.24 167.036 100.064 167.058L96.784 167.455C95.7926 167.575 95.0007 167.44 94.4083 167.051C93.8067 166.664 93.4594 166.085 93.3663 165.316C93.3013 164.779 93.3766 164.314 93.5924 163.921C93.7999 163.538 94.0923 163.235 94.4694 163.011C93.8921 162.902 93.4039 162.674 93.0047 162.328C92.5963 161.983 92.3562 161.513 92.2844 160.92C92.1813 160.068 92.3878 159.366 92.9039 158.815C93.4201 158.263 94.2944 157.913 95.5267 157.764L98.8901 157.356ZM96.6097 163.217C95.785 163.317 95.2227 163.526 94.9228 163.844C94.6229 164.163 94.5032 164.572 94.5637 165.072C94.6164 165.508 94.8392 165.834 95.2319 166.049C95.6154 166.266 96.1175 166.337 96.7383 166.262L99.2818 165.954L98.9168 162.938L96.6097 163.217ZM95.7947 158.93C94.896 159.039 94.2781 159.255 93.9411 159.577C93.5948 159.901 93.4525 160.318 93.5142 160.828C93.642 161.884 94.526 162.313 96.166 162.114L98.7789 161.798L98.3938 158.615L95.7947 158.93Z" fill="#292727"/>
<path d="M81.4597 158.229C82.4366 158.307 83.2754 158.589 83.9761 159.076C84.6769 159.563 85.1971 160.199 85.5368 160.985C85.8766 161.77 86.0167 162.652 85.9571 163.631C85.8603 164.606 85.5818 165.455 85.1214 166.176C84.661 166.898 84.0462 167.443 83.277 167.812C82.5078 168.181 81.6347 168.327 80.6579 168.249C79.681 168.17 78.8468 167.888 78.1554 167.402C77.4547 166.915 76.9348 166.274 76.5958 165.48C76.2468 164.693 76.1016 163.815 76.1605 162.846C76.2565 161.88 76.5397 161.032 77.0101 160.302C77.4705 159.581 78.0853 159.035 78.8545 158.666C79.6144 158.296 80.4828 158.15 81.4597 158.229ZM81.3648 159.415C80.6205 159.355 79.9605 159.471 79.3848 159.762C78.8091 160.053 78.3539 160.475 78.0194 161.029C77.6848 161.583 77.4885 162.222 77.4304 162.948C77.3723 163.674 77.4644 164.337 77.7067 164.936C77.9489 165.536 78.3311 166.026 78.8532 166.405C79.3753 166.784 80.0085 167.003 80.7528 167.062C81.5064 167.123 82.171 167.007 82.7467 166.716C83.3131 166.425 83.7636 166.002 84.0982 165.448C84.4328 164.895 84.6291 164.255 84.6872 163.529C84.7452 162.803 84.6532 162.141 84.4109 161.541C84.1687 160.941 83.7911 160.452 83.2783 160.074C82.7562 159.695 82.1184 159.475 81.3648 159.415Z" fill="#292727"/>
<path d="M69.9326 156.882C70.1029 156.931 70.2294 157.031 70.3121 157.181C70.3947 157.332 70.4113 157.492 70.3619 157.662L67.972 165.89C67.9225 166.061 67.8226 166.187 67.6723 166.27C67.5193 166.361 67.3577 166.383 67.1874 166.333L64.055 165.423C62.8361 165.068 61.9949 164.552 61.5312 163.873C61.0675 163.194 60.9541 162.446 61.1911 161.631C61.3472 161.093 61.6428 160.644 62.0777 160.285C62.501 159.931 63.0281 159.74 63.659 159.709C63.0631 159.351 62.7411 158.82 62.6929 158.116C62.6332 157.418 62.6918 156.765 62.8689 156.155L63.0485 155.537C63.0979 155.367 63.1979 155.24 63.3482 155.157C63.4986 155.075 63.6589 155.058 63.8292 155.108C64.0174 155.162 64.1541 155.261 64.2394 155.402C64.3131 155.55 64.3239 155.713 64.2719 155.892L64.1547 156.296C64.0245 156.744 63.9451 157.168 63.9164 157.568C63.8852 157.977 63.9789 158.373 64.1977 158.758C64.414 159.151 64.8313 159.437 65.4497 159.617L68.2325 160.426L69.1385 157.307C69.188 157.137 69.2923 157.011 69.4517 156.931C69.602 156.849 69.7623 156.832 69.9326 156.882ZM65.4634 160.875C64.6926 160.651 64.0389 160.626 63.5023 160.801C62.9567 160.973 62.6032 161.336 62.4418 161.892C62.2856 162.43 62.363 162.899 62.674 163.301C62.9761 163.7 63.5977 164.036 64.5387 164.309L66.9048 164.997L67.8967 161.582L65.4634 160.875Z" fill="#292727"/>
<path d="M57.3003 152.904C57.4664 152.989 57.5758 153.113 57.6284 153.277C57.6727 153.436 57.6545 153.594 57.5736 153.752C57.5395 153.818 57.4762 153.891 57.3836 153.969L50.363 159.84C50.2199 159.956 50.0668 160.029 49.9037 160.061C49.7281 160.097 49.553 160.07 49.3786 159.981L49.254 159.917C49.0796 159.827 48.9598 159.703 48.8947 159.544C48.8169 159.388 48.7831 159.219 48.7933 159.035L49.4607 149.906C49.4702 149.785 49.4921 149.691 49.5261 149.625C49.607 149.467 49.7291 149.362 49.8924 149.309C50.0474 149.252 50.2079 149.267 50.374 149.352C50.4903 149.411 50.5834 149.496 50.6532 149.605C50.7105 149.718 50.7364 149.842 50.7309 149.975L50.5445 152.334L54.78 154.506L56.5859 152.978C56.6911 152.895 56.8105 152.847 56.9442 152.831C57.0654 152.82 57.1841 152.844 57.3003 152.904ZM53.814 155.317L50.4505 153.592L50.057 158.503L53.814 155.317Z" fill="#292727"/>
<path d="M43.109 144.695C43.2498 144.803 43.3315 144.942 43.3541 145.112C43.3767 145.282 43.3341 145.437 43.2263 145.578L38.3514 151.949L40.6191 153.685C40.7525 153.787 40.8296 153.917 40.8504 154.074C40.8713 154.231 40.8307 154.376 40.7286 154.51C40.6265 154.643 40.497 154.72 40.34 154.741C40.1773 154.769 40.0293 154.733 39.8959 154.63L34.3602 150.392C34.2268 150.29 34.1525 150.157 34.1373 149.992C34.109 149.829 34.146 149.681 34.248 149.548C34.3501 149.414 34.4834 149.34 34.6478 149.325C34.8048 149.304 34.95 149.345 35.0834 149.447L37.3399 151.175L42.2148 144.804C42.3225 144.663 42.4652 144.584 42.6426 144.567C42.8127 144.545 42.9681 144.587 43.109 144.695Z" fill="#292727"/>
<path d="M35.3467 138.189C35.4711 138.315 35.5326 138.464 35.5314 138.636C35.5301 138.808 35.4663 138.956 35.3399 139.08L29.187 145.143C29.0607 145.267 28.9118 145.329 28.7402 145.328C28.562 145.333 28.4107 145.272 28.2862 145.146C28.1618 145.02 28.1036 144.867 28.1115 144.689C28.1063 144.511 28.1668 144.359 28.2931 144.235L34.446 138.172C34.5724 138.048 34.7246 137.99 34.9027 137.998C35.0742 137.999 35.2222 138.063 35.3467 138.189Z" fill="#292727"/>
<path d="M28.2839 130.311C28.5093 130.62 28.5062 130.98 28.2746 131.391L23.5343 139.126C23.4905 139.193 23.4346 139.251 23.3668 139.301C23.2084 139.416 23.051 139.461 22.8945 139.437C22.7305 139.418 22.5908 139.329 22.4754 139.171C22.3984 139.065 22.3637 138.946 22.3711 138.814C22.3655 138.679 22.399 138.551 22.4716 138.429L27.1638 130.937L18.597 133.11C18.4585 133.142 18.3288 133.138 18.208 133.099C18.0742 133.058 17.9688 132.985 17.8918 132.879C17.7764 132.721 17.7348 132.561 17.7669 132.399C17.7914 132.242 17.8829 132.106 18.0413 131.991C18.1091 131.941 18.1815 131.906 18.2583 131.885L27.071 129.739C27.5334 129.645 27.8772 129.752 28.1026 130.062L28.2839 130.311Z" fill="#292727"/>
<path d="M22.1277 121.266C22.2041 121.426 22.2138 121.587 22.1567 121.749C22.0996 121.911 21.9911 122.03 21.8311 122.107L14.1652 125.774C14.0053 125.851 13.8444 125.86 13.6826 125.803C13.5124 125.75 13.389 125.644 13.3126 125.484L10.8909 120.419C10.8185 120.267 10.8128 120.115 10.8739 119.961C10.9226 119.804 11.0227 119.688 11.1743 119.616C11.3258 119.543 11.4783 119.538 11.6317 119.599C11.781 119.652 11.8919 119.754 11.9644 119.905L14.1082 124.389L16.8993 123.054L14.9728 119.025C14.9004 118.873 14.8947 118.721 14.9558 118.567C15.0045 118.409 15.1047 118.294 15.2562 118.222C15.4078 118.149 15.5602 118.144 15.7136 118.205C15.8629 118.257 15.9738 118.36 16.0463 118.511L17.9727 122.54L20.7764 121.199L18.6326 116.715C18.5601 116.564 18.5544 116.411 18.6156 116.258C18.6643 116.1 18.7644 115.985 18.9159 115.912C19.0675 115.84 19.2199 115.834 19.3733 115.895C19.5227 115.948 19.6336 116.05 19.706 116.202L22.1277 121.266Z" fill="#292727"/>
<path d="M15.0617 102.278C15.0965 102.451 15.0662 102.61 14.971 102.753C14.8758 102.895 14.7413 102.984 14.5674 103.019L6.09708 104.713C5.92319 104.747 5.76487 104.717 5.62211 104.622C5.4702 104.529 5.37688 104.395 5.34212 104.221C5.30737 104.047 5.34217 103.888 5.44653 103.743C5.5399 103.591 5.67353 103.498 5.84742 103.463L14.3177 101.77C14.4916 101.735 14.6509 101.77 14.7954 101.874C14.9382 101.969 15.027 102.104 15.0617 102.278Z" fill="#292727"/>
<path d="M13.5612 94.5518C13.568 94.729 13.5131 94.8805 13.3966 95.0065C13.28 95.1324 13.1331 95.1988 12.9559 95.2056L4.60414 95.5279C4.35232 95.5377 4.1344 95.4573 3.95036 95.287C3.757 95.117 3.65546 94.9061 3.64575 94.6543L3.63874 94.4724C3.62722 94.1739 3.75723 93.9121 4.02875 93.6868L11.5992 88.0006L4.04484 88.2921C3.86763 88.299 3.71607 88.2441 3.59015 88.1275C3.45491 88.0113 3.38387 87.8646 3.37703 87.6874C3.3702 87.5102 3.42973 87.3585 3.55562 87.2322C3.67183 87.097 3.81853 87.0259 3.99573 87.0191L12.3475 86.6967C12.5993 86.687 12.8174 86.772 13.0018 86.9517C13.1859 87.1221 13.2827 87.3331 13.2925 87.585L13.2989 87.7528C13.3047 87.902 13.2774 88.0432 13.2172 88.1763C13.1476 88.3097 13.0585 88.4206 12.9498 88.5089L5.33845 94.2246L12.9068 93.9325C13.084 93.9257 13.2358 93.9852 13.362 94.1111C13.488 94.2277 13.5543 94.3746 13.5612 94.5518Z" fill="#292727"/>
<path d="M13.4164 79.2487C13.3862 79.4234 13.3009 79.5602 13.1607 79.659C13.0204 79.7579 12.8629 79.7922 12.6882 79.7619L4.45284 78.3354C4.20453 78.2924 4.00814 78.1684 3.86366 77.9634C3.70998 77.7568 3.65463 77.5294 3.69761 77.2811L3.72865 77.1017C3.7796 76.8075 3.96132 76.5784 4.27383 76.4147L12.863 72.4322L5.4139 71.1419C5.23917 71.1117 5.10237 71.0264 5.00352 70.8861C4.89546 70.7443 4.85656 70.586 4.88681 70.4112C4.91705 70.2365 5.0069 70.1005 5.15634 70.0033C5.29818 69.8952 5.45647 69.8563 5.6312 69.8866L13.8666 71.3131C14.1149 71.3561 14.3105 71.4847 14.4534 71.6989C14.5979 71.9039 14.6486 72.1305 14.6056 72.3788L14.577 72.5444C14.5515 72.6915 14.4954 72.8239 14.4088 72.9415C14.3129 73.0575 14.2026 73.1473 14.0779 73.211L5.44264 77.2139L12.9055 78.5066C13.0802 78.5368 13.2162 78.6267 13.3135 78.7762C13.4124 78.9164 13.4467 79.0739 13.4164 79.2487Z" fill="#292727"/>
<path d="M17.8947 60.9476C17.5287 61.8566 17.0088 62.5729 16.3352 63.0964C15.6616 63.62 14.8992 63.9266 14.0481 64.0164C13.197 64.1061 12.3134 63.9766 11.3974 63.6276C10.4954 63.2441 9.76875 62.7249 9.21743 62.0701C8.66611 61.4153 8.32903 60.6657 8.20621 59.8213C8.08338 58.9768 8.20499 58.1001 8.57103 57.191C8.93707 56.2819 9.45516 55.57 10.1253 55.0551C10.7989 54.5316 11.5656 54.2267 12.4254 54.1404C13.28 54.042 14.161 54.1655 15.0683 54.5109C15.9617 54.891 16.6866 55.4145 17.2431 56.0815C17.7944 56.7363 18.1315 57.4859 18.2543 58.3303C18.3806 59.1661 18.2608 60.0385 17.8947 60.9476ZM16.7909 60.5028C17.0698 59.8102 17.1563 59.1457 17.0503 58.5093C16.9443 57.8729 16.677 57.3124 16.2483 56.8278C15.8197 56.3431 15.2677 55.9648 14.5925 55.6927C13.9172 55.4207 13.2572 55.3107 12.6124 55.3628C11.9676 55.415 11.3865 55.6337 10.8691 56.0189C10.3518 56.4042 9.9537 56.9431 9.67481 57.6357C9.39244 58.337 9.30424 59.0059 9.41021 59.6422C9.51968 60.27 9.78874 60.8261 10.2174 61.3108C10.6461 61.7954 11.198 62.1738 11.8733 62.4458C12.5486 62.7179 13.2086 62.8279 13.8534 62.7757C14.4982 62.7236 15.0775 62.5092 15.5914 62.1326C16.1087 61.7474 16.5086 61.2041 16.7909 60.5028Z" fill="#292727"/>
<path d="M24.0528 48.2524C23.8436 48.5729 23.5057 48.6977 23.0391 48.627L14.1281 46.9361C14.0502 46.9187 13.9762 46.8871 13.9059 46.8411C13.7418 46.7339 13.6435 46.6028 13.6109 46.4478C13.5706 46.2876 13.604 46.1255 13.7111 45.9614C13.7825 45.852 13.8815 45.7773 14.0079 45.7372C14.1317 45.6843 14.2635 45.6701 14.4036 45.6947L23.0704 47.4267L18.0007 40.185C17.9219 40.0666 17.8793 39.944 17.873 39.8172C17.8639 39.6775 17.895 39.5529 17.9665 39.4435C18.0736 39.2794 18.2086 39.1836 18.3714 39.1562C18.5264 39.1237 18.6859 39.161 18.85 39.2682C18.9203 39.3141 18.9791 39.3693 19.0263 39.4335L24.1565 46.9155C24.4088 47.3144 24.4304 47.6741 24.2212 47.9945L24.0528 48.2524Z" fill="#292727"/>
<path d="M29.54 40.2898C29.4112 40.4249 29.2611 40.4945 29.0896 40.4986C28.9245 40.4959 28.7778 40.4334 28.6495 40.311C28.5954 40.2595 28.544 40.1782 28.4951 40.0671L24.8596 31.6661C24.7895 31.4961 24.7624 31.3283 24.7783 31.1629C24.7938 30.9843 24.8692 30.824 25.0045 30.6821L25.1011 30.5808C25.2363 30.4389 25.3895 30.3593 25.5607 30.3421C25.7316 30.3116 25.9036 30.3273 26.0767 30.3892L34.6386 33.622C34.7518 33.6655 34.8355 33.7131 34.8895 33.7646C35.0178 33.887 35.084 34.034 35.0881 34.2055C35.0986 34.3703 35.0395 34.5203 34.9107 34.6554C34.8206 34.75 34.7132 34.8153 34.5887 34.8513C34.4638 34.8741 34.3381 34.8638 34.2117 34.8206L32.0034 33.972L28.7192 37.4174L29.6717 39.5835C29.7209 39.7078 29.7338 39.8362 29.7106 39.9688C29.687 40.0882 29.6302 40.1952 29.54 40.2898ZM28.2164 36.2608L30.8245 33.5246L26.2279 31.7523L28.2164 36.2608Z" fill="#292727"/>
<path d="M41.4377 28.9993C41.2945 29.1039 41.1381 29.1429 40.9686 29.1164C40.7991 29.0899 40.6621 29.005 40.5576 28.8618L35.8298 22.381L33.523 24.0648C33.3873 24.1639 33.2413 24.2012 33.0848 24.1767C32.9283 24.1523 32.8006 24.0722 32.7016 23.9365C32.6026 23.8007 32.5653 23.6546 32.5897 23.4981C32.6087 23.334 32.686 23.2025 32.8217 23.1034L38.453 18.9929C38.5887 18.8938 38.7376 18.8603 38.8995 18.8923C39.0635 18.9112 39.195 18.9885 39.2941 19.1243C39.3931 19.26 39.4266 19.4089 39.3946 19.5709C39.3701 19.7274 39.2901 19.8552 39.1544 19.9542L36.8589 21.6298L41.5866 28.1107C41.6911 28.2539 41.7263 28.4131 41.6923 28.5881C41.6658 28.7577 41.5809 28.8948 41.4377 28.9993Z" fill="#292727"/>
<path d="M49.8666 23.399C49.7101 23.4825 49.5498 23.4993 49.3857 23.4494C49.2215 23.3994 49.0977 23.2962 49.0143 23.1398L44.9487 15.5184C44.8652 15.3619 44.8484 15.2016 44.8984 15.0374C44.9439 14.865 45.0449 14.737 45.2013 14.6535C45.3578 14.57 45.5203 14.5573 45.6888 14.6155C45.8612 14.661 45.9891 14.762 46.0726 14.9184L50.1382 22.5399C50.2216 22.6963 50.2343 22.8588 50.1761 23.0274C50.1262 23.1916 50.023 23.3155 49.8666 23.399Z" fill="#292727"/>
<path d="M59.4193 18.8654C59.0586 18.9933 58.7142 18.8876 58.3861 18.5485L52.3262 11.7994C52.2749 11.7384 52.2352 11.6683 52.2071 11.5891C52.1417 11.4044 52.143 11.2405 52.2112 11.0975C52.2762 10.9457 52.4011 10.8371 52.5859 10.7716C52.709 10.7279 52.833 10.7285 52.9578 10.7734C53.0883 10.8063 53.2018 10.875 53.2982 10.9795L59.1389 17.6131L59.5 8.7808C59.5091 8.63893 59.5496 8.51565 59.6214 8.41096C59.699 8.29436 59.7993 8.21423 59.9224 8.17056C60.1072 8.10507 60.2726 8.1108 60.4187 8.18774C60.5616 8.25588 60.6658 8.38233 60.7313 8.56708C60.7594 8.64625 60.7727 8.72571 60.7712 8.80544L60.3126 17.8655C60.2712 18.3356 60.0702 18.6347 59.7095 18.7625L59.4193 18.8654Z" fill="#292727"/>
<path d="M69.8413 15.5462C69.6661 15.5737 69.5092 15.537 69.3705 15.436C69.2318 15.335 69.1487 15.1968 69.1212 15.0217L67.8024 6.62661C67.7749 6.45143 67.8116 6.29448 67.9127 6.15578C68.0122 6.00786 68.1496 5.92013 68.3248 5.89259L73.8707 5.02085C74.0367 4.99476 74.1844 5.03296 74.3139 5.13543C74.4511 5.22723 74.5328 5.35612 74.5588 5.52208C74.5849 5.68804 74.5467 5.83577 74.4442 5.96525C74.351 6.09329 74.2213 6.17035 74.0554 6.19643L69.1457 6.96817L69.6258 10.0247L74.0376 9.33121C74.2036 9.30513 74.3513 9.34332 74.4808 9.44579C74.618 9.53759 74.6997 9.66648 74.7258 9.83244C74.7518 9.99841 74.7136 10.1461 74.6111 10.2756C74.5179 10.4036 74.3883 10.4807 74.2223 10.5068L69.8105 11.2003L70.2928 14.2706L75.2025 13.4989C75.3685 13.4728 75.5162 13.511 75.6457 13.6135C75.7829 13.7053 75.8646 13.8341 75.8906 14.0001C75.9167 14.1661 75.8785 14.3138 75.776 14.4433C75.6828 14.5713 75.5531 14.6484 75.3872 14.6745L69.8413 15.5462Z" fill="#292727"/>
</svg>
