<svg width="185" height="184" viewBox="0 0 185 184" fill="none" xmlns="http://www.w3.org/2000/svg">
<path d="M95.8864 3.05689L97.6777 3.25524L96.3672 15.0897L96.514 15.106L106.047 4.182L107.809 4.37711L106.144 19.4125L104.323 19.2109L105.631 7.40575L105.484 7.38949L95.9834 18.2874L94.2214 18.0923L95.8864 3.05689Z" fill="#C19C53"/>
<path d="M110.366 20.366L115.276 6.0576L117.008 6.65213L114.822 13.0238L122.451 15.6417L124.638 9.27L126.37 9.86454L121.46 24.1729L119.728 23.5784L121.924 17.1787L114.295 14.5609L112.099 20.9605L110.366 20.366Z" fill="#C19C53"/>
<path d="M131.525 14.0427L132.354 12.6447L142.114 18.4291L141.286 19.827L137.193 17.4018L130.309 29.0174L128.734 28.0835L135.618 16.4679L131.525 14.0427Z" fill="#C19C53"/>
<path d="M137.135 33.5571L147.078 22.1565L153.958 28.1572L152.89 29.3819L147.39 24.5852L144.031 28.4373L149.174 32.9233L148.106 34.148L142.963 29.662L139.583 33.5364L145.172 38.4108L144.104 39.6355L137.135 33.5571Z" fill="#C19C53"/>
<path d="M146.668 42.3821L158.396 32.8272L161.624 36.7899C162.374 37.7099 162.82 38.5973 162.964 39.452C163.115 40.3074 163.025 41.1049 162.694 41.8446C162.363 42.5844 161.852 43.2357 161.161 43.7987C160.47 44.3616 159.727 44.732 158.931 44.9099C158.139 45.0915 157.337 45.0271 156.526 44.7167C155.718 44.4032 154.942 43.7903 154.199 42.8779L151.884 40.0376L153.144 39.0112L155.421 41.8057C155.934 42.4356 156.455 42.8528 156.984 43.0572C157.512 43.2617 158.032 43.299 158.542 43.1691C159.059 43.0399 159.553 42.784 160.022 42.4014C160.492 42.0189 160.84 41.5889 161.068 41.1116C161.298 40.6381 161.361 40.123 161.257 39.5664C161.156 39.0066 160.847 38.408 160.327 37.7705L158.293 35.2737L147.825 43.8022L146.668 42.3821Z" fill="#C19C53"/>
<path d="M154.521 52.621L153.601 50.9357L169.539 48.557L170.446 50.2164L159.834 62.344L158.913 60.6587L167.92 50.586L167.864 50.4823L154.521 52.621ZM160.047 50.4101L163.759 57.2031L162.332 57.9823L158.621 51.1892L160.047 50.4101Z" fill="#C19C53"/>
<path d="M163.611 73.8793L168.712 66.8629L168.163 65.0843L161.528 67.1321L160.988 65.3817L175.443 60.9202L175.983 62.6706L169.715 64.605L169.951 65.3673L178.004 69.2202L178.649 71.3093L170.493 67.4261L164.256 75.9684L163.611 73.8793Z" fill="#C19C53"/>
<path d="M178.191 77.133L179.807 76.9617L181.003 88.2439L179.387 88.4152L178.885 83.6849L165.458 85.1083L165.265 83.2867L178.692 81.8633L178.191 77.133Z" fill="#C19C53"/>
<path d="M181.062 95.0179L180.883 96.8113L169.035 95.6321L169.02 95.7791L180.049 105.19L179.874 106.954L164.821 105.456L165.002 103.633L176.821 104.81L176.836 104.663L165.833 95.2838L166.009 93.5198L181.062 95.0179Z" fill="#C19C53"/>
<path d="M163.828 109.598L178.289 114.038L176.737 119.094C176.427 120.101 175.998 120.879 175.449 121.426C174.904 121.975 174.291 122.32 173.609 122.461C172.932 122.603 172.24 122.566 171.534 122.349C170.913 122.158 170.433 121.89 170.097 121.544C169.758 121.204 169.526 120.818 169.401 120.388C169.274 119.963 169.217 119.526 169.232 119.077L169.09 119.033C168.926 119.467 168.634 119.864 168.215 120.225C167.795 120.585 167.275 120.835 166.655 120.975C166.036 121.114 165.345 121.067 164.582 120.833C163.857 120.61 163.256 120.245 162.778 119.738C162.3 119.23 162.001 118.569 161.88 117.754C161.759 116.94 161.874 115.963 162.224 114.823L163.828 109.598ZM164.844 111.826L163.777 115.3C163.426 116.444 163.398 117.324 163.693 117.94C163.991 118.562 164.458 118.971 165.094 119.166C165.583 119.316 166.073 119.33 166.564 119.208C167.06 119.087 167.503 118.834 167.894 118.45C168.29 118.066 168.585 117.559 168.778 116.929L169.871 113.37L164.844 111.826ZM171.396 113.838L170.399 117.086C170.237 117.613 170.195 118.121 170.272 118.608C170.347 119.1 170.535 119.528 170.835 119.894C171.134 120.263 171.537 120.526 172.046 120.682C172.681 120.878 173.288 120.822 173.866 120.515C174.449 120.21 174.888 119.577 175.183 118.617L176.198 115.312L171.396 113.838Z" fill="#C19C53"/>
<path d="M172.053 127.398L173.494 128.15L168.243 138.207L166.802 137.455L169.004 133.238L157.035 126.989L157.882 125.365L169.852 131.614L172.053 127.398Z" fill="#C19C53"/>
<path d="M164.148 144.078L151.793 135.349L152.85 133.853L165.205 142.581L164.148 144.078Z" fill="#C19C53"/>
<path d="M155.196 155.099L153.527 156.512L141.489 150.252L141.354 150.367L145.546 163.272L143.877 164.685L134.101 153.141L135.409 152.033L142.836 160.804L142.949 160.708L139.129 148.883L140.392 147.813L151.427 153.529L151.54 153.434L144.112 144.663L145.42 143.556L155.196 155.099Z" fill="#C19C53"/>
<path d="M132.604 164.257L128.703 166.098C127.723 166.56 126.821 166.79 125.998 166.787C125.169 166.785 124.444 166.575 123.821 166.156C123.194 165.738 122.694 165.133 122.319 164.341C121.945 163.548 121.791 162.766 121.857 161.994C121.919 161.224 122.207 160.508 122.722 159.846C123.233 159.186 123.978 158.625 124.958 158.162L130.088 155.741L136.544 169.422L134.887 170.203L129.112 157.966L125.639 159.605C125.015 159.899 124.546 160.273 124.232 160.726C123.915 161.186 123.739 161.667 123.704 162.168C123.666 162.676 123.752 163.153 123.962 163.598C124.271 164.253 124.788 164.697 125.514 164.932C126.242 165.171 127.074 165.07 128.009 164.628L131.91 162.787L132.604 164.257ZM123.879 175.399L117.423 161.718L119.079 160.936L125.536 174.617L123.879 175.399Z" fill="#C19C53"/>
<path d="M103.841 165.032L110.352 170.764L112.174 170.383L110.753 163.587L112.546 163.212L115.641 178.02L113.848 178.394L112.506 171.974L111.725 172.137L107.138 179.797L104.998 180.244L109.625 172.486L101.701 165.479L103.841 165.032ZM101.6 167.16L100.518 161.983L102.224 161.627L103.306 166.803L101.6 167.16Z" fill="#C19C53"/>
<path d="M98.456 179.351L98.47 180.976L87.125 181.074L87.1109 179.449L91.8676 179.408L91.7511 165.906L93.5829 165.89L93.6993 179.392L98.456 179.351Z" fill="#C19C53"/>
<path d="M80.1616 174.056L75.9471 173.136C74.8887 172.905 74.034 172.537 73.3831 172.032C72.7274 171.526 72.2807 170.917 72.0429 170.205C71.8003 169.492 71.7725 168.707 71.9593 167.851C72.1462 166.995 72.501 166.281 73.0238 165.709C73.5418 165.137 74.2069 164.745 75.019 164.534C75.8263 164.322 76.7592 164.332 77.8176 164.563L83.3599 165.772L80.1354 180.552L78.3457 180.161L81.2301 166.94L77.4775 166.122C76.804 165.975 76.2045 165.985 75.679 166.153C75.1477 166.324 74.715 166.597 74.3811 166.973C74.0412 167.353 73.8188 167.783 73.7139 168.264C73.5596 168.971 73.6986 169.639 74.131 170.268C74.5623 170.901 75.2832 171.328 76.2935 171.548L80.508 172.468L80.1616 174.056ZM66.4527 177.566L69.6773 162.787L71.467 163.177L68.2424 177.957L66.4527 177.566Z" fill="#C19C53"/>
<path d="M51.5121 171.532L49.9657 170.606L56.081 160.39L55.9542 160.314L42.7407 166.281L41.2196 165.371L48.989 152.391L50.5607 153.332L44.4606 163.523L44.5873 163.599L57.7604 157.642L59.2814 158.552L51.5121 171.532Z" fill="#C19C53"/>
<path d="M45.5377 149.759L35.1384 160.745L33.8081 159.486L38.439 154.594L32.5813 149.049L27.9504 153.941L26.62 152.682L37.0193 141.696L38.3496 142.955L33.6984 147.869L39.5561 153.414L44.2073 148.5L45.5377 149.759Z" fill="#C19C53"/>
<path d="M34.168 138.353L21.648 146.844L20.6199 145.328L26.1952 141.547L21.6681 134.871L16.0928 138.652L15.0647 137.136L27.5846 128.646L28.6128 130.162L23.013 133.959L27.5401 140.635L33.1398 136.837L34.168 138.353Z" fill="#C19C53"/>
<path d="M13.7973 115.658C15.2823 115.075 16.671 114.839 17.9633 114.95C19.2556 115.062 20.3787 115.47 21.3327 116.174C22.2866 116.879 22.9995 117.831 23.4712 119.032C23.9429 120.233 24.0691 121.416 23.8497 122.582C23.6304 123.747 23.0852 124.81 22.2142 125.771C21.3432 126.733 20.1652 127.505 18.6802 128.088C17.1952 128.672 15.8066 128.908 14.5143 128.796C13.2219 128.685 12.0988 128.277 11.1449 127.572C10.1909 126.868 9.47806 125.915 9.00634 124.714C8.53462 123.514 8.40844 122.33 8.6278 121.165C8.84717 120 9.39235 118.936 10.2634 117.975C11.1344 117.014 12.3123 116.242 13.7973 115.658ZM14.4455 117.308C13.2263 117.787 12.2775 118.395 11.599 119.133C10.9187 119.866 10.4991 120.663 10.3401 121.524C10.1794 122.381 10.2664 123.235 10.6013 124.088C10.9362 124.94 11.455 125.628 12.1577 126.151C12.8586 126.669 13.7085 126.967 14.7075 127.046C15.7047 127.12 16.8129 126.917 18.032 126.438C19.2512 125.959 20.2009 125.353 20.8812 124.621C21.5597 123.883 21.9793 123.086 22.1401 122.229C22.299 121.368 22.2111 120.511 21.8762 119.659C21.5413 118.806 21.0234 118.121 20.3225 117.603C19.6198 117.08 18.7699 116.781 17.7727 116.708C16.7737 116.629 15.6647 116.829 14.4455 117.308Z" fill="#C19C53"/>
<path d="M20.0021 109.214L5.08025 111.698L4.21172 106.481C4.03866 105.442 4.07565 104.555 4.32269 103.82C4.56487 103.085 4.95963 102.503 5.50695 102.072C6.04942 101.643 6.68495 101.367 7.41356 101.246C8.05474 101.139 8.6032 101.165 9.05894 101.324C9.51388 101.478 9.89351 101.719 10.1978 102.048C10.5014 102.372 10.747 102.737 10.9347 103.146L11.0805 103.121C11.0336 102.66 11.1175 102.174 11.3321 101.664C11.5467 101.154 11.9001 100.698 12.3924 100.297C12.8847 99.8955 13.5243 99.6293 14.3112 99.4983C15.0592 99.3738 15.7602 99.4318 16.4143 99.6723C17.0684 99.9129 17.6313 100.371 18.1032 101.046C18.575 101.721 18.9088 102.647 19.1045 103.822L20.0021 109.214ZM18.0984 107.674L17.5016 104.089C17.305 102.909 16.9373 102.109 16.3982 101.689C15.8534 101.266 15.2532 101.109 14.5974 101.218C14.0923 101.302 13.6474 101.508 13.2628 101.837C12.8733 102.166 12.5895 102.59 12.4113 103.109C12.2283 103.629 12.191 104.214 12.2993 104.865L12.9107 108.537L18.0984 107.674ZM11.3369 108.799L10.7789 105.448C10.6883 104.904 10.4998 104.431 10.2133 104.029C9.92596 103.623 9.56658 103.323 9.13513 103.131C8.70287 102.933 8.22444 102.878 7.69984 102.965C7.04409 103.074 6.52593 103.395 6.14535 103.928C5.75992 104.461 5.64969 105.223 5.81466 106.214L6.38236 109.624L11.3369 108.799Z" fill="#C19C53"/>
<path d="M18.0684 94.4513L18.0078 96.3708L3.06339 90.3416L3.12307 88.4516L18.4181 83.3772L18.3575 85.2967L5.48708 89.413L5.48335 89.5312L18.0684 94.4513ZM12.1847 93.556L12.429 85.819L14.0532 85.8703L13.8089 93.6073L12.1847 93.556Z" fill="#C19C53"/>
<path d="M20.2616 67.2383L25.3809 68.6937L24.9349 70.5313L21.4608 69.688L21.2099 70.7216L19.5159 70.3104L20.2616 67.2383ZM18.9239 80.139L4.22352 76.5707L4.63471 74.8767L17.6985 78.0478L19.5384 70.4679L6.47462 67.2968L6.88581 65.6029L21.5862 69.1712L18.9239 80.139Z" fill="#C19C53"/>
<path d="M9.45171 58.387L10.2451 56.7688L20.9361 62.0103L21.0012 61.8777L13.9519 49.2081L14.7323 47.6164L28.3149 54.2756L27.5086 55.9204L16.844 50.6919L16.779 50.8245L23.8148 63.4545L23.0344 65.0463L9.45171 58.387Z" fill="#C19C53"/>
<path d="M36.9976 42.577L35.8737 44.0235L25.2119 35.7387L23.2358 38.2817C22.7343 38.9271 22.4301 39.5233 22.3232 40.0701C22.2125 40.6139 22.2665 41.1142 22.4852 41.571C22.7039 42.0278 23.0524 42.4421 23.5307 42.8137C24.009 43.1854 24.4891 43.4181 24.9711 43.5121C25.4523 43.5991 25.9373 43.5207 26.4261 43.2769C26.9179 43.0292 27.4115 42.5865 27.907 41.9488L30.4088 38.7293L31.7153 39.7445L29.1773 43.0107C28.4582 43.9361 27.7139 44.5769 26.9444 44.9332C26.1711 45.2864 25.4004 45.3953 24.6325 45.2601C23.8645 45.1248 23.1286 44.7837 22.4249 44.2368C21.7211 43.69 21.2049 43.0581 20.8763 42.3414C20.5478 41.6246 20.4587 40.8444 20.609 40.0009C20.7555 39.1543 21.1913 38.2644 21.9164 37.3312L25.0527 33.2952L36.9976 42.577ZM27.2627 44.0299L28.5317 42.3969L31.6497 49.4593L30.3444 51.1391L27.2627 44.0299Z" fill="#C19C53"/>
<path d="M38.5379 40.6948L37.4436 39.4148L37.7804 39.1268C38.2595 38.7172 38.5007 38.2454 38.5041 37.7113C38.5075 37.1772 38.2744 36.518 37.8048 35.7339C37.339 34.9465 36.6435 33.9701 35.7183 32.8046L31.1783 27.0848L38.185 21.0947L48.0149 32.5928L46.6225 33.7832L37.8486 23.5202L33.5592 27.1872L37.2962 31.9221C38.2816 33.1657 39.0479 34.2856 39.5952 35.2819C40.1424 36.2782 40.3856 37.1878 40.3248 38.0108C40.2639 38.8338 39.8105 39.6069 38.9646 40.3301L38.5379 40.6948Z" fill="#C19C53"/>
<path d="M49.3849 21.0943L53.2335 19.1461C54.2 18.6568 55.0951 18.4024 55.9186 18.3829C56.7465 18.3612 57.4775 18.5514 58.1115 18.9535C58.75 19.3533 59.2671 19.9442 59.663 20.7263C60.0588 21.5083 60.2345 22.2859 60.1898 23.0591C60.1496 23.8301 59.8812 24.5537 59.3847 25.2301C58.8925 25.9042 58.1631 26.4859 57.1966 26.9751L52.1354 29.5371L45.3034 16.0406L46.9377 15.2132L53.0492 27.2864L56.476 25.5517C57.0911 25.2403 57.5495 24.8538 57.8511 24.392C58.1549 23.9236 58.3176 23.4383 58.3394 22.9361C58.3633 22.4273 58.264 21.9532 58.0416 21.5139C57.7147 20.868 57.1852 20.4379 56.453 20.2235C55.7185 20.0047 54.89 20.1289 53.9674 20.5959L50.1188 22.5441L49.3849 21.0943ZM57.7983 9.71561L64.6303 23.2122L62.9959 24.0395L56.1639 10.5429L57.7983 9.71561Z" fill="#C19C53"/>
<path d="M78.0993 19.5261L71.4315 13.9775L69.6208 14.4089L71.2303 21.163L69.4484 21.5876L65.9417 6.87241L67.7237 6.44777L69.2441 12.8282L70.0201 12.6433L74.3915 4.85882L76.5183 4.35199L72.11 12.2364L80.2262 19.0193L78.0993 19.5261ZM80.2806 17.3358L81.5065 22.4804L79.8108 22.8845L78.5849 17.7399L80.2806 17.3358Z" fill="#C19C53"/>
<path fill-rule="evenodd" clip-rule="evenodd" d="M67 92.2878C80.8071 92.2878 92 80.5184 92 66C92 80.5184 103.193 92.2878 117 92.2878C103.193 92.2878 92 104.057 92 118.576C92 104.057 80.8071 92.2878 67 92.2878Z" fill="#C19C53"/>
</svg>
