<svg width="171" height="171" viewBox="0 0 171 171" fill="none" xmlns="http://www.w3.org/2000/svg">
<path fill-rule="evenodd" clip-rule="evenodd" d="M60 85.2667C73.8071 85.2667 85 73.4972 85 58.9789C85 73.4972 96.1929 85.2667 110 85.2667C96.1929 85.2667 85 97.0362 85 111.555C85 97.0362 73.8071 85.2667 60 85.2667Z" fill="#E5F89A"/>
<path d="M87.5317 13.1585C87.3546 13.1489 87.2088 13.0803 87.0942 12.9525C86.9796 12.8248 86.9271 12.6724 86.9367 12.4953L87.4045 3.87001C87.4141 3.69294 87.4828 3.54711 87.6105 3.43253C87.7387 3.30863 87.8914 3.25148 88.0685 3.26109C88.2455 3.2707 88.3911 3.34403 88.5052 3.48108C88.6291 3.60932 88.6862 3.76197 88.6766 3.93905L88.2088 12.5644C88.1992 12.7414 88.1259 12.887 87.9889 13.0011C87.8611 13.1157 87.7087 13.1682 87.5317 13.1585Z" fill="#E5F89A"/>
<path d="M95.379 13.6213C95.2057 13.5838 95.0726 13.4929 94.9796 13.3486C94.8867 13.2044 94.859 13.0456 94.8965 12.8723L96.6637 4.70322C96.7169 4.45692 96.849 4.26586 97.0598 4.13006C97.2726 3.98513 97.5021 3.93932 97.7484 3.99263L97.9263 4.03113C98.2182 4.09432 98.4395 4.28546 98.5901 4.60454L102.212 13.3529L103.811 5.96378C103.848 5.79046 103.939 5.65734 104.083 5.56441C104.23 5.46237 104.389 5.43011 104.563 5.46762C104.736 5.50514 104.868 5.60059 104.959 5.75397C105.061 5.90021 105.093 6.05999 105.056 6.23331L103.289 14.4024C103.235 14.6487 103.099 14.8387 102.879 14.9726C102.668 15.1084 102.44 15.1496 102.193 15.0963L102.029 15.0608C101.883 15.0292 101.753 14.9676 101.639 14.8761C101.527 14.7755 101.442 14.6616 101.384 14.5343L97.7431 5.73902L96.1416 13.1418C96.1042 13.3151 96.0087 13.4473 95.8554 13.5382C95.7111 13.6311 95.5523 13.6588 95.379 13.6213Z" fill="#E5F89A"/>
<path d="M112.177 18.2506C112.014 18.1805 111.901 18.0658 111.837 17.9064C111.774 17.747 111.777 17.5858 111.847 17.4229L115.015 10.0528L112.391 8.92445C112.237 8.85808 112.13 8.75131 112.071 8.60417C112.013 8.45702 112.017 8.30627 112.083 8.15192C112.149 7.99758 112.256 7.89108 112.403 7.83243C112.554 7.76521 112.707 7.76479 112.861 7.83116L119.266 10.5857C119.42 10.6521 119.525 10.7632 119.58 10.9189C119.647 11.0697 119.647 11.2223 119.581 11.3767C119.515 11.531 119.404 11.6357 119.248 11.6906C119.101 11.7493 118.95 11.7454 118.796 11.679L116.185 10.5562L113.017 17.9262C112.947 18.0892 112.828 18.2005 112.66 18.2604C112.501 18.3239 112.34 18.3207 112.177 18.2506Z" fill="#E5F89A"/>
<path d="M121.429 22.5375C121.281 22.44 121.189 22.3073 121.155 22.1392C121.12 21.9711 121.151 21.813 121.249 21.6648L125.918 14.5644C126.015 14.4162 126.148 14.3248 126.316 14.2901C126.489 14.2476 126.65 14.2751 126.798 14.3726L131.488 17.4584C131.628 17.5507 131.712 17.6784 131.739 17.8413C131.778 18.0016 131.752 18.1519 131.66 18.2923C131.568 18.4326 131.44 18.5163 131.277 18.5432C131.122 18.5752 130.974 18.545 130.834 18.4527L126.682 15.7208L124.982 18.306L128.713 20.7608C128.853 20.8532 128.937 20.9808 128.964 21.1437C129.004 21.304 128.977 21.4543 128.885 21.5947C128.793 21.7351 128.665 21.8187 128.502 21.8456C128.347 21.8776 128.199 21.8475 128.059 21.7551L124.328 19.3003L122.621 21.8972L126.773 24.629C126.913 24.7214 126.997 24.849 127.023 25.0119C127.063 25.1722 127.037 25.3225 126.945 25.4629C126.852 25.6033 126.725 25.6869 126.562 25.7138C126.407 25.7458 126.259 25.7157 126.119 25.6233L121.429 22.5375Z" fill="#E5F89A"/>
<path d="M131.95 29.9513C131.822 29.8283 131.757 29.681 131.753 29.5094C131.75 29.3378 131.81 29.1881 131.933 29.0604L137.874 22.8871C137.997 22.7593 138.145 22.6938 138.316 22.6905C138.494 22.6806 138.647 22.7371 138.775 22.8601L141.124 25.1228C142.039 26.0034 142.543 26.852 142.638 27.6689C142.733 28.4857 142.485 29.2001 141.896 29.812C141.508 30.2155 141.038 30.4753 140.486 30.5914C139.947 30.7073 139.391 30.632 138.818 30.3656C139.179 30.9595 139.217 31.5794 138.933 32.2252C138.661 32.8707 138.305 33.4221 137.865 33.8794L137.419 34.3434C137.296 34.4712 137.148 34.5367 136.977 34.5399C136.805 34.5432 136.656 34.4833 136.528 34.3603C136.387 34.2243 136.311 34.0739 136.302 33.9091C136.305 33.7439 136.372 33.5941 136.501 33.4596L136.792 33.157C137.116 32.8208 137.383 32.4823 137.595 32.1416C137.812 31.7942 137.914 31.3994 137.899 30.9574C137.89 30.5086 137.654 30.0609 137.19 29.6142L135.103 27.6039L132.851 29.9441C132.728 30.0719 132.577 30.1342 132.399 30.1309C132.227 30.1342 132.078 30.0743 131.95 29.9513ZM137.763 28.4942C138.341 29.051 138.908 29.3769 139.465 29.472C140.027 29.5735 140.51 29.4158 140.911 28.9989C141.299 28.5954 141.449 28.1436 141.36 27.6436C141.278 27.15 140.884 26.5633 140.179 25.8835L138.404 24.1743L135.938 26.7364L137.763 28.4942Z" fill="#E5F89A"/>
<path d="M141.319 39.3443C141.212 39.1914 141.174 39.0304 141.204 38.8614C141.239 38.7001 141.329 38.5685 141.474 38.4668C141.535 38.424 141.625 38.3896 141.744 38.3636L150.694 36.4547C150.875 36.4195 151.045 36.426 151.204 36.4742C151.376 36.5247 151.518 36.6302 151.63 36.7908L151.71 36.9055C151.823 37.0661 151.871 37.232 151.854 37.4033C151.85 37.5769 151.801 37.7425 151.706 37.9L146.849 45.659C146.784 45.7614 146.72 45.8341 146.659 45.8769C146.514 45.9786 146.357 46.0146 146.188 45.9847C146.024 45.9626 145.889 45.875 145.782 45.7221C145.707 45.615 145.664 45.4969 145.654 45.3676C145.656 45.2407 145.691 45.1195 145.758 45.004L147.025 43.0058L144.296 39.1057L141.986 39.6128C141.854 39.6365 141.726 39.6238 141.6 39.5749C141.488 39.5283 141.394 39.4514 141.319 39.3443ZM145.529 38.8407L147.696 41.9378L150.34 37.7796L145.529 38.8407Z" fill="#E5F89A"/>
<path d="M150.907 55.1477C150.528 54.2945 150.371 53.4452 150.436 52.5998C150.512 51.7592 150.809 50.9894 151.326 50.2904C151.855 49.5961 152.585 49.0427 153.515 48.6302C154.445 48.2177 155.341 48.0502 156.202 48.1276C157.076 48.2098 157.845 48.5066 158.511 49.0179C159.189 49.534 159.717 50.2187 160.095 51.072C160.352 51.6522 160.513 52.1987 160.577 52.7115C160.645 53.2328 160.651 53.7763 160.595 54.342C160.576 54.5752 160.456 54.7409 160.234 54.8393C160.106 54.8961 159.97 54.9003 159.826 54.8518C159.69 54.7996 159.589 54.6967 159.521 54.5431C159.483 54.4578 159.466 54.3734 159.47 54.29C159.499 53.8275 159.486 53.3944 159.43 52.9906C159.373 52.5868 159.241 52.1503 159.033 51.681C158.708 50.9472 158.276 50.3882 157.738 50.0039C157.213 49.6244 156.627 49.4197 155.98 49.3899C155.347 49.3647 154.697 49.4998 154.031 49.7949C153.366 50.0901 152.825 50.483 152.41 50.9736C152.007 51.469 151.765 52.0407 151.685 52.6889C151.617 53.3419 151.746 54.0352 152.071 54.769C152.279 55.2383 152.514 55.6295 152.775 55.9424C153.036 56.2554 153.348 56.556 153.711 56.8444C153.775 56.8976 153.826 56.9668 153.864 57.0521C153.932 57.2057 153.94 57.3502 153.888 57.4857C153.836 57.6212 153.741 57.7192 153.605 57.7798C153.383 57.8782 153.179 57.8562 152.994 57.7139C152.537 57.3752 152.139 57.0058 151.798 56.6055C151.461 56.2139 151.164 55.7279 150.907 55.1477Z" fill="#E5F89A"/>
<path d="M155.139 66.6073C155.097 66.4348 155.122 66.2754 155.211 66.1292C155.301 65.9829 155.432 65.889 155.605 65.8477L163.405 63.977L162.74 61.1996C162.701 61.0362 162.722 60.887 162.805 60.752C162.888 60.617 163.011 60.5299 163.174 60.4907C163.338 60.4515 163.487 60.4733 163.622 60.5561C163.766 60.6367 163.858 60.7587 163.897 60.9221L165.522 67.7021C165.561 67.8655 165.535 68.0158 165.443 68.153C165.362 68.2971 165.24 68.3887 165.077 68.4279C164.913 68.4671 164.763 68.4407 164.626 68.3489C164.491 68.2661 164.404 68.143 164.365 67.9796L163.702 65.2159L155.901 67.0866C155.729 67.128 155.569 67.0993 155.42 67.0005C155.274 66.9108 155.18 66.7797 155.139 66.6073Z" fill="#E5F89A"/>
<path d="M157.055 76.517C157.038 76.3405 157.084 76.1861 157.193 76.0538C157.303 75.9214 157.445 75.8469 157.622 75.83L166.221 75.0099C166.398 74.993 166.552 75.0392 166.684 75.1485C166.826 75.2569 166.905 75.3993 166.922 75.5759C166.939 75.7524 166.888 75.9073 166.769 76.0405C166.661 76.1821 166.518 76.2613 166.342 76.2781L157.743 77.0983C157.566 77.1151 157.412 77.0643 157.278 76.9457C157.146 76.8364 157.071 76.6935 157.055 76.517Z" fill="#E5F89A"/>
<path d="M157.564 87.2174C157.585 86.8353 157.814 86.5579 158.254 86.3851L166.813 83.3813C166.889 83.3573 166.969 83.3476 167.053 83.3521C167.248 83.3626 167.399 83.4268 167.505 83.5446C167.62 83.6629 167.673 83.82 167.662 84.0157C167.655 84.1462 167.607 84.2604 167.517 84.3584C167.437 84.4663 167.33 84.5446 167.196 84.5936L158.828 87.4394L166.844 91.1641C166.972 91.2271 167.07 91.3118 167.139 91.4183C167.217 91.5346 167.252 91.658 167.245 91.7885C167.235 91.9842 167.166 92.1348 167.039 92.2401C166.921 92.3459 166.764 92.3936 166.569 92.3831C166.485 92.3786 166.406 92.3604 166.333 92.3284L158.144 88.4262C157.726 88.2075 157.527 87.9071 157.548 87.525L157.564 87.2174Z" fill="#E5F89A"/>
<path d="M156.636 98.101C156.678 97.9286 156.772 97.7977 156.918 97.7082C157.064 97.6188 157.224 97.5949 157.396 97.6365L165.657 99.6316C165.829 99.6733 165.96 99.7673 166.049 99.9137C166.148 100.062 166.176 100.223 166.135 100.395L164.818 105.853C164.778 106.016 164.686 106.138 164.542 106.218C164.405 106.31 164.254 106.336 164.091 106.296C163.928 106.257 163.806 106.165 163.726 106.021C163.643 105.886 163.621 105.736 163.661 105.573L164.827 100.742L161.819 100.015L160.772 104.357C160.732 104.52 160.64 104.642 160.496 104.722C160.359 104.814 160.208 104.84 160.045 104.801C159.882 104.761 159.76 104.669 159.68 104.525C159.597 104.39 159.575 104.241 159.615 104.077L160.663 99.7361L157.642 99.0064L156.475 103.838C156.436 104.001 156.344 104.123 156.2 104.203C156.063 104.295 155.912 104.321 155.749 104.282C155.586 104.242 155.464 104.15 155.383 104.006C155.301 103.871 155.279 103.722 155.319 103.558L156.636 98.101Z" fill="#E5F89A"/>
<path d="M148.33 120.526C148.796 119.718 149.39 119.091 150.111 118.645C150.836 118.212 151.632 117.999 152.502 118.006C153.374 118.025 154.251 118.289 155.132 118.798C156.013 119.307 156.675 119.933 157.12 120.675C157.568 121.43 157.781 122.227 157.76 123.066C157.742 123.918 157.499 124.748 157.032 125.556C156.715 126.106 156.368 126.558 155.991 126.911C155.61 127.273 155.174 127.598 154.684 127.886C154.485 128.008 154.28 128.008 154.07 127.886C153.948 127.816 153.865 127.709 153.819 127.564C153.782 127.424 153.805 127.281 153.889 127.135C153.936 127.055 153.994 126.991 154.064 126.945C154.455 126.697 154.797 126.431 155.09 126.148C155.383 125.864 155.658 125.5 155.915 125.056C156.316 124.361 156.514 123.683 156.508 123.022C156.505 122.373 156.326 121.779 155.969 121.239C155.617 120.712 155.125 120.266 154.495 119.901C153.864 119.537 153.229 119.331 152.588 119.284C151.95 119.25 151.346 119.391 150.775 119.708C150.207 120.037 149.723 120.55 149.321 121.245C149.064 121.689 148.886 122.109 148.787 122.505C148.688 122.9 148.629 123.329 148.609 123.793C148.604 123.876 148.578 123.958 148.532 124.039C148.448 124.184 148.336 124.276 148.195 124.313C148.055 124.351 147.92 124.332 147.791 124.257C147.581 124.136 147.479 123.958 147.484 123.725C147.489 123.156 147.553 122.616 147.676 122.105C147.794 121.602 148.012 121.076 148.33 120.526Z" fill="#E5F89A"/>
<path d="M140.755 131.543C141.402 130.808 142.131 130.305 142.94 130.036C143.75 129.766 144.571 129.731 145.403 129.929C146.236 130.128 147.026 130.544 147.773 131.178C148.496 131.84 149.009 132.572 149.31 133.373C149.612 134.174 149.681 134.993 149.516 135.83C149.35 136.667 148.944 137.454 148.296 138.189C147.648 138.924 146.923 139.423 146.12 139.686C145.31 139.955 144.486 139.988 143.646 139.783C142.808 139.591 142.018 139.181 141.278 138.554C140.562 137.898 140.052 137.163 139.75 136.349C139.448 135.548 139.379 134.729 139.545 133.891C139.704 133.061 140.107 132.278 140.755 131.543ZM141.647 132.33C141.154 132.89 140.851 133.488 140.739 134.123C140.628 134.759 140.693 135.376 140.936 135.976C141.179 136.576 141.573 137.116 142.12 137.598C142.666 138.079 143.252 138.402 143.877 138.568C144.502 138.733 145.123 138.72 145.739 138.529C146.355 138.338 146.91 137.963 147.403 137.402C147.903 136.835 148.209 136.233 148.321 135.598C148.426 134.97 148.358 134.356 148.115 133.756C147.872 133.156 147.477 132.616 146.931 132.134C146.385 131.653 145.799 131.33 145.174 131.164C144.549 130.999 143.931 131.008 143.321 131.192C142.705 131.383 142.147 131.762 141.647 132.33Z" fill="#E5F89A"/>
<path d="M132.582 140.134C132.774 139.985 132.991 139.923 133.234 139.946C133.475 139.983 133.671 140.098 133.819 140.289L138.921 146.857C139.03 146.997 139.074 147.152 139.052 147.322C139.037 147.5 138.959 147.643 138.819 147.752C138.679 147.861 138.521 147.901 138.345 147.872C138.167 147.856 138.024 147.779 137.915 147.639L133.054 141.381L129.44 144.19C129.3 144.299 129.142 144.339 128.966 144.31C128.788 144.295 128.645 144.217 128.536 144.077C128.427 143.937 128.387 143.779 128.416 143.603C128.437 143.433 128.518 143.293 128.658 143.184L132.582 140.134Z" fill="#E5F89A"/>
<path d="M122.898 147.167C123.111 147.051 123.336 147.024 123.571 147.088C123.804 147.163 123.978 147.308 124.093 147.521L128.057 154.832C128.142 154.987 128.16 155.148 128.111 155.312C128.067 155.485 127.967 155.614 127.811 155.698C127.655 155.783 127.492 155.797 127.324 155.74C127.151 155.695 127.022 155.595 126.938 155.439L123.16 148.473L119.137 150.657C118.981 150.741 118.818 150.755 118.649 150.698C118.477 150.654 118.348 150.554 118.264 150.398C118.179 150.242 118.165 150.079 118.222 149.91C118.271 149.746 118.373 149.621 118.529 149.537L122.898 147.167Z" fill="#E5F89A"/>
<path d="M113.303 152.137C113.48 152.079 113.646 152.089 113.799 152.167C113.943 152.247 114.042 152.372 114.097 152.54C114.12 152.611 114.127 152.707 114.118 152.828L113.338 161.949C113.319 162.131 113.263 162.292 113.171 162.43C113.073 162.58 112.93 162.685 112.744 162.746L112.611 162.79C112.425 162.851 112.252 162.848 112.093 162.782C111.928 162.728 111.784 162.633 111.661 162.496L105.653 155.592C105.574 155.5 105.523 155.418 105.5 155.347C105.445 155.178 105.456 155.018 105.534 154.865C105.603 154.715 105.726 154.611 105.903 154.553C106.027 154.512 106.153 154.505 106.28 154.533C106.4 154.572 106.506 154.641 106.597 154.738L108.14 156.532L112.665 155.055L112.852 152.696C112.868 152.564 112.917 152.444 113.001 152.339C113.078 152.245 113.179 152.178 113.303 152.137ZM112.559 156.312L108.966 157.485L112.174 161.224L112.559 156.312Z" fill="#E5F89A"/>
<path d="M98.89 156.446C99.0661 156.425 99.2216 156.467 99.3566 156.573C99.4917 156.679 99.5698 156.82 99.5911 156.996L100.612 165.432C100.633 165.608 100.591 165.764 100.485 165.899C100.38 166.043 100.24 166.126 100.064 166.147L96.7839 166.544C95.7925 166.664 95.0006 166.53 94.4082 166.141C93.8066 165.753 93.4593 165.175 93.3662 164.406C93.3012 163.868 93.3765 163.403 93.5922 163.01C93.7998 162.628 94.0921 162.325 94.4693 162.1C93.892 161.992 93.4038 161.764 93.0046 161.417C92.5962 161.072 92.3561 160.603 92.2843 160.01C92.1811 159.157 92.3877 158.455 92.9038 157.904C93.42 157.353 94.2942 157.002 95.5266 156.853L98.89 156.446ZM96.6095 162.307C95.7849 162.406 95.2226 162.615 94.9227 162.934C94.6227 163.252 94.5031 163.662 94.5636 164.162C94.6163 164.597 94.839 164.923 95.2318 165.139C95.6153 165.355 96.1174 165.426 96.7382 165.351L99.2816 165.043L98.9167 162.027L96.6095 162.307ZM95.7946 158.019C94.8958 158.128 94.278 158.344 93.941 158.667C93.5947 158.991 93.4524 159.408 93.5141 159.917C93.6419 160.974 94.5258 161.402 96.1659 161.204L98.7788 160.887L98.3936 157.705L95.7946 158.019Z" fill="#E5F89A"/>
<path d="M81.4597 157.318C82.4366 157.396 83.2754 157.679 83.9761 158.166C84.6769 158.653 85.1971 159.289 85.5368 160.074C85.8766 160.86 86.0167 161.742 85.9571 162.72C85.8603 163.696 85.5818 164.544 85.1214 165.266C84.661 165.987 84.0462 166.533 83.277 166.902C82.5078 167.271 81.6347 167.416 80.6579 167.338C79.681 167.26 78.8468 166.978 78.1554 166.492C77.4547 166.005 76.9348 165.364 76.5958 164.569C76.2468 163.783 76.1016 162.905 76.1605 161.936C76.2565 160.97 76.5397 160.122 77.0101 159.392C77.4705 158.67 78.0853 158.125 78.8545 157.756C79.6144 157.386 80.4828 157.24 81.4597 157.318ZM81.3648 158.504C80.6205 158.445 79.9605 158.56 79.3848 158.851C78.8091 159.142 78.3539 159.565 78.0194 160.119C77.6848 160.672 77.4885 161.312 77.4304 162.038C77.3723 162.763 77.4644 163.426 77.7067 164.026C77.9489 164.626 78.3311 165.115 78.8532 165.494C79.3753 165.873 80.0085 166.092 80.7528 166.152C81.5064 166.212 82.171 166.097 82.7467 165.806C83.3131 165.514 83.7636 165.092 84.0982 164.538C84.4328 163.984 84.6291 163.344 84.6872 162.619C84.7452 161.893 84.6532 161.23 84.4109 160.63C84.1687 160.03 83.7911 159.541 83.2783 159.163C82.7562 158.784 82.1184 158.565 81.3648 158.504Z" fill="#E5F89A"/>
<path d="M69.9326 155.971C70.1029 156.021 70.2294 156.121 70.3121 156.271C70.3947 156.421 70.4113 156.582 70.3619 156.752L67.972 164.98C67.9225 165.15 67.8226 165.277 67.6723 165.359C67.5193 165.451 67.3577 165.472 67.1874 165.423L64.055 164.512C62.8361 164.158 61.9949 163.641 61.5312 162.962C61.0675 162.283 60.9541 161.536 61.1911 160.72C61.3472 160.182 61.6428 159.734 62.0777 159.374C62.501 159.021 63.0281 158.829 63.659 158.799C63.0631 158.441 62.7411 157.91 62.6929 157.206C62.6332 156.508 62.6918 155.854 62.8689 155.245L63.0485 154.626C63.0979 154.456 63.1979 154.33 63.3482 154.247C63.4986 154.164 63.6589 154.148 63.8292 154.197C64.0174 154.252 64.1541 154.35 64.2394 154.491C64.3131 154.639 64.3239 154.803 64.2719 154.982L64.1547 155.385C64.0245 155.833 63.9451 156.258 63.9164 156.657C63.8852 157.066 63.9789 157.463 64.1977 157.847C64.414 158.24 64.8313 158.527 65.4497 158.707L68.2325 159.516L69.1385 156.396C69.188 156.226 69.2923 156.101 69.4517 156.021C69.602 155.938 69.7623 155.922 69.9326 155.971ZM65.4634 159.965C64.6926 159.741 64.0389 159.716 63.5023 159.89C62.9567 160.062 62.6032 160.426 62.4418 160.982C62.2856 161.519 62.363 161.989 62.674 162.39C62.9761 162.789 63.5977 163.125 64.5387 163.399L66.9048 164.087L67.8967 160.672L65.4634 159.965Z" fill="#E5F89A"/>
<path d="M57.3002 151.993C57.4663 152.078 57.5757 152.203 57.6283 152.366C57.6726 152.525 57.6543 152.684 57.5735 152.841C57.5394 152.908 57.4761 152.98 57.3835 153.059L50.3628 158.93C50.2198 159.045 50.0667 159.119 49.9036 159.151C49.7279 159.186 49.5529 159.16 49.3785 159.07L49.2539 159.006C49.0795 158.917 48.9597 158.792 48.8945 158.633C48.8168 158.478 48.783 158.309 48.7932 158.125L49.4606 148.996C49.4701 148.875 49.4919 148.781 49.526 148.714C49.6069 148.557 49.729 148.451 49.8923 148.399C50.0473 148.342 50.2078 148.356 50.3739 148.441C50.4902 148.501 50.5832 148.585 50.6531 148.695C50.7104 148.808 50.7363 148.931 50.7308 149.065L50.5444 151.424L54.7799 153.596L56.5858 152.067C56.6909 151.985 56.8104 151.936 56.9441 151.921C57.0652 151.909 57.184 151.934 57.3002 151.993ZM53.8139 154.406L50.4504 152.681L50.0569 157.593L53.8139 154.406Z" fill="#E5F89A"/>
<path d="M43.109 143.785C43.2498 143.892 43.3315 144.031 43.3541 144.201C43.3767 144.372 43.3341 144.527 43.2263 144.668L38.3514 151.039L40.6191 152.775C40.7525 152.877 40.8296 153.007 40.8504 153.164C40.8713 153.321 40.8307 153.466 40.7286 153.599C40.6265 153.733 40.497 153.81 40.34 153.831C40.1773 153.859 40.0293 153.822 39.8959 153.72L34.3602 149.482C34.2268 149.379 34.1525 149.246 34.1373 149.082C34.109 148.919 34.146 148.771 34.248 148.637C34.3501 148.504 34.4834 148.43 34.6478 148.415C34.8048 148.394 34.95 148.434 35.0834 148.536L37.3399 150.264L42.2148 143.893C42.3225 143.753 42.4652 143.674 42.6426 143.657C42.8127 143.634 42.9681 143.677 43.109 143.785Z" fill="#E5F89A"/>
<path d="M35.3467 137.279C35.4711 137.405 35.5326 137.554 35.5314 137.725C35.5301 137.897 35.4663 138.045 35.3399 138.17L29.187 144.232C29.0607 144.357 28.9118 144.418 28.7402 144.417C28.562 144.422 28.4107 144.362 28.2862 144.235C28.1618 144.109 28.1036 143.957 28.1115 143.779C28.1063 143.6 28.1668 143.449 28.2931 143.325L34.446 137.262C34.5724 137.137 34.7246 137.079 34.9027 137.087C35.0742 137.088 35.2222 137.152 35.3467 137.279Z" fill="#E5F89A"/>
<path d="M28.2838 129.4C28.5091 129.709 28.506 130.07 28.2745 130.481L23.5342 138.216C23.4904 138.283 23.4345 138.341 23.3666 138.39C23.2083 138.506 23.0508 138.551 22.8944 138.526C22.7304 138.507 22.5907 138.419 22.4753 138.26C22.3983 138.155 22.3636 138.036 22.371 137.903C22.3654 137.769 22.3989 137.64 22.4715 137.518L27.1636 130.026L18.5969 132.2C18.4583 132.231 18.3287 132.228 18.2079 132.189C18.074 132.148 17.9687 132.074 17.8917 131.969C17.7763 131.81 17.7346 131.65 17.7667 131.488C17.7913 131.332 17.8828 131.196 18.0411 131.08C18.109 131.031 18.1814 130.995 18.2582 130.974L27.0709 128.829C27.5333 128.734 27.8771 128.842 28.1024 129.151L28.2838 129.4Z" fill="#E5F89A"/>
<path d="M22.1278 120.356C22.2043 120.516 22.214 120.677 22.1568 120.839C22.0997 121 21.9912 121.12 21.8312 121.196L14.1654 124.864C14.0054 124.94 13.8445 124.95 13.6827 124.893C13.5125 124.84 13.3892 124.733 13.3127 124.573L10.891 119.508C10.8186 119.357 10.8129 119.204 10.8741 119.051C10.9227 118.893 11.0229 118.778 11.1744 118.705C11.326 118.633 11.4784 118.627 11.6318 118.688C11.7811 118.741 11.892 118.843 11.9645 118.995L14.1084 123.479L16.8994 122.143L14.9729 118.114C14.9005 117.963 14.8948 117.81 14.956 117.657C15.0047 117.499 15.1048 117.384 15.2563 117.311C15.4079 117.239 15.5603 117.233 15.7137 117.294C15.863 117.347 15.974 117.449 16.0464 117.601L17.9729 121.63L20.7765 120.288L18.6327 115.805C18.5602 115.653 18.5545 115.501 18.6157 115.347C18.6644 115.189 18.7645 115.074 18.9161 115.002C19.0676 114.929 19.2201 114.924 19.3734 114.985C19.5228 115.037 19.6337 115.139 19.7061 115.291L22.1278 120.356Z" fill="#E5F89A"/>
<path d="M15.0617 101.367C15.0965 101.541 15.0662 101.699 14.971 101.842C14.8758 101.985 14.7413 102.074 14.5674 102.108L6.09708 103.802C5.92319 103.837 5.76487 103.807 5.62211 103.711C5.4702 103.618 5.37688 103.484 5.34212 103.311C5.30737 103.137 5.34217 102.977 5.44653 102.833C5.5399 102.681 5.67353 102.588 5.84742 102.553L14.3177 100.859C14.4916 100.824 14.6509 100.859 14.7954 100.963C14.9382 101.059 15.027 101.193 15.0617 101.367Z" fill="#E5F89A"/>
<path d="M13.5613 93.6413C13.5681 93.8185 13.5133 93.97 13.3967 94.0959C13.2801 94.2219 13.1332 94.2882 12.956 94.2951L4.60426 94.6174C4.35245 94.6271 4.13452 94.5468 3.95049 94.3765C3.75712 94.2064 3.65559 93.9955 3.64587 93.7437L3.63886 93.5619C3.62735 93.2634 3.75735 93.0015 4.02887 92.7762L11.5993 87.09L4.04496 87.3816C3.86776 87.3884 3.7162 87.3336 3.59028 87.217C3.45503 87.1008 3.38399 86.9541 3.37715 86.7769C3.37032 86.5997 3.42985 86.448 3.55574 86.3217C3.67195 86.1864 3.81865 86.1154 3.99585 86.1085L12.3476 85.7862C12.5994 85.7765 12.8176 85.8615 13.0019 86.0412C13.186 86.2115 13.2829 86.4226 13.2926 86.6744L13.299 86.8423C13.3048 86.9915 13.2776 87.1327 13.2173 87.2658C13.1477 87.3992 13.0586 87.5101 12.9499 87.5983L5.33857 93.3141L12.9069 93.022C13.0841 93.0152 13.2359 93.0747 13.3622 93.2006C13.4881 93.3172 13.5545 93.464 13.5613 93.6413Z" fill="#E5F89A"/>
<path d="M13.4165 78.3382C13.3863 78.5129 13.3011 78.6497 13.1608 78.7486C13.0206 78.8474 12.8631 78.8817 12.6883 78.8514L4.45296 77.425C4.20466 77.382 4.00826 77.258 3.86378 77.053C3.7101 76.8464 3.65475 76.6189 3.69773 76.3706L3.72878 76.1913C3.77972 75.897 3.96144 75.668 4.27395 75.5043L12.8631 71.5217L5.41402 70.2315C5.23929 70.2012 5.1025 70.1159 5.00364 69.9757C4.89558 69.8338 4.85668 69.6755 4.88693 69.5008C4.91718 69.3261 5.00702 69.1901 5.15647 69.0928C5.29831 68.9848 5.45659 68.9459 5.63132 68.9761L13.8667 70.4026C14.115 70.4456 14.3106 70.5742 14.4535 70.7884C14.598 70.9934 14.6487 71.2201 14.6057 71.4684L14.5771 71.6339C14.5516 71.7811 14.4955 71.9134 14.4089 72.031C14.313 72.147 14.2028 72.2369 14.0781 72.3005L5.44276 76.3035L12.9056 77.5961C13.0804 77.6264 13.2164 77.7162 13.3136 77.8657C13.4125 78.006 13.4468 78.1635 13.4165 78.3382Z" fill="#E5F89A"/>
<path d="M17.8947 60.0371C17.5287 60.9462 17.0088 61.6625 16.3352 62.186C15.6616 62.7095 14.8992 63.0162 14.0481 63.1059C13.197 63.1957 12.3134 63.0661 11.3974 62.7172C10.4954 62.3336 9.76875 61.8144 9.21743 61.1596C8.66611 60.5048 8.32903 59.7552 8.20621 58.9108C8.08338 58.0664 8.20499 57.1896 8.57103 56.2806C8.93707 55.3715 9.45516 54.6595 10.1253 54.1446C10.7989 53.6211 11.5656 53.3162 12.4254 53.23C13.28 53.1315 14.161 53.255 15.0683 53.6005C15.9617 53.9805 16.6866 54.504 17.2431 55.171C17.7944 55.8258 18.1315 56.5754 18.2543 57.4198C18.3806 58.2556 18.2608 59.128 17.8947 60.0371ZM16.7909 59.5924C17.0698 58.8997 17.1563 58.2352 17.0503 57.5989C16.9443 56.9625 16.677 56.402 16.2483 55.9173C15.8197 55.4327 15.2677 55.0543 14.5925 54.7823C13.9172 54.5102 13.2572 54.4002 12.6124 54.4524C11.9676 54.5045 11.3865 54.7232 10.8691 55.1085C10.3518 55.4937 9.9537 56.0326 9.67481 56.7253C9.39244 57.4266 9.30424 58.0954 9.41021 58.7318C9.51968 59.3595 9.78874 59.9157 10.2174 60.4003C10.6461 60.885 11.198 61.2633 11.8733 61.5354C12.5486 61.8074 13.2086 61.9174 13.8534 61.8653C14.4982 61.8131 15.0775 61.5988 15.5914 61.2222C16.1087 60.8369 16.5086 60.2937 16.7909 59.5924Z" fill="#E5F89A"/>
<path d="M24.0527 47.3419C23.8435 47.6623 23.5056 47.7872 23.039 47.7165L14.1279 46.0256C14.0501 46.0082 13.9761 45.9765 13.9057 45.9306C13.7416 45.8234 13.6433 45.6923 13.6108 45.5373C13.5704 45.3771 13.6038 45.215 13.711 45.0509C13.7824 44.9414 13.8814 44.8667 14.0078 44.8267C14.1316 44.7738 14.2634 44.7596 14.4034 44.7841L23.0703 46.5162L18.0006 39.2744C17.9218 39.1561 17.8792 39.0335 17.8728 38.9067C17.8637 38.767 17.8949 38.6424 17.9663 38.533C18.0735 38.3689 18.2085 38.2731 18.3713 38.2457C18.5263 38.2131 18.6858 38.2505 18.8499 38.3577C18.9202 38.4036 18.979 38.4587 19.0262 38.523L24.1564 46.005C24.4087 46.4039 24.4302 46.7636 24.221 47.084L24.0527 47.3419Z" fill="#E5F89A"/>
<path d="M29.54 39.3794C29.4112 39.5145 29.2611 39.5841 29.0896 39.5882C28.9245 39.5855 28.7778 39.523 28.6495 39.4006C28.5954 39.349 28.544 39.2677 28.4951 39.1566L24.8596 30.7556C24.7895 30.5856 24.7624 30.4179 24.7783 30.2524C24.7938 30.0738 24.8692 29.9135 25.0045 29.7717L25.1011 29.6703C25.2363 29.5285 25.3895 29.4489 25.5607 29.4316C25.7316 29.4011 25.9036 29.4168 26.0767 29.4787L34.6386 32.7115C34.7518 32.7551 34.8355 32.8026 34.8895 32.8541C35.0178 32.9765 35.084 33.1235 35.0881 33.2951C35.0986 33.4599 35.0395 33.6099 34.9107 33.745C34.8206 33.8396 34.7132 33.9048 34.5887 33.9408C34.4638 33.9636 34.3381 33.9534 34.2117 33.9102L32.0034 33.0615L28.7192 36.507L29.6717 38.6731C29.7209 38.7973 29.7338 38.9258 29.7106 39.0584C29.687 39.1778 29.6302 39.2848 29.54 39.3794ZM28.2164 35.3503L30.8245 32.6142L26.2279 30.8419L28.2164 35.3503Z" fill="#E5F89A"/>
<path d="M41.4377 28.0888C41.2945 28.1934 41.1381 28.2324 40.9686 28.2059C40.7991 28.1795 40.6621 28.0946 40.5576 27.9513L35.8298 21.4705L33.523 23.1544C33.3873 23.2534 33.2413 23.2907 33.0848 23.2663C32.9283 23.2418 32.8006 23.1617 32.7016 23.026C32.6026 22.8903 32.5653 22.7442 32.5897 22.5876C32.6087 22.4236 32.686 22.292 32.8217 22.193L38.453 18.0824C38.5887 17.9833 38.7376 17.9498 38.8995 17.9818C39.0635 18.0007 39.195 18.0781 39.2941 18.2138C39.3931 18.3495 39.4266 18.4984 39.3946 18.6604C39.3701 18.8169 39.2901 18.9447 39.1544 19.0438L36.8589 20.7194L41.5866 27.2002C41.6911 27.3435 41.7263 27.5026 41.6923 27.6777C41.6658 27.8472 41.5809 27.9843 41.4377 28.0888Z" fill="#E5F89A"/>
<path d="M49.8666 22.4885C49.7101 22.572 49.5498 22.5888 49.3857 22.5389C49.2215 22.489 49.0977 22.3858 49.0143 22.2293L44.9487 14.6079C44.8652 14.4514 44.8484 14.2911 44.8984 14.1269C44.9439 13.9545 45.0449 13.8265 45.2013 13.743C45.3578 13.6595 45.5203 13.6469 45.6888 13.705C45.8612 13.7505 45.9891 13.8515 46.0726 14.008L50.1382 21.6294C50.2216 21.7859 50.2343 21.9484 50.1761 22.117C50.1262 22.2812 50.023 22.405 49.8666 22.4885Z" fill="#E5F89A"/>
<path d="M59.4191 17.955C59.0585 18.0828 58.7141 17.9772 58.3859 17.638L52.3261 10.889C52.2748 10.8279 52.2351 10.7578 52.207 10.6787C52.1416 10.4939 52.1429 10.33 52.2111 10.187C52.2761 10.0352 52.401 9.92661 52.5857 9.86111C52.7089 9.81745 52.8329 9.81806 52.9577 9.86293C53.0882 9.89588 53.2017 9.96459 53.2981 10.069L59.1388 16.7027L59.4999 7.87034C59.509 7.72846 59.5495 7.60518 59.6213 7.5005C59.6988 7.3839 59.7992 7.30376 59.9223 7.2601C60.1071 7.19461 60.2725 7.20033 60.4185 7.27728C60.5615 7.34542 60.6657 7.47187 60.7312 7.65661C60.7592 7.73579 60.7725 7.81525 60.7711 7.89498L60.3125 16.955C60.2711 17.4252 60.0701 17.7242 59.7094 17.8521L59.4191 17.955Z" fill="#E5F89A"/>
<path d="M69.8412 14.6357C69.666 14.6633 69.509 14.6265 69.3703 14.5255C69.2317 14.4245 69.1486 14.2864 69.121 14.1112L67.8023 5.71615C67.7747 5.54097 67.8115 5.38402 67.9125 5.24532C68.0121 5.09739 68.1495 5.00966 68.3247 4.98213L73.8706 4.11039C74.0366 4.0843 74.1843 4.1225 74.3137 4.22497C74.451 4.31677 74.5326 4.44565 74.5587 4.61162C74.5848 4.77758 74.5466 4.92531 74.4441 5.05479C74.3508 5.18283 74.2212 5.25989 74.0553 5.28597L69.1455 6.05771L69.6257 9.11423L74.0375 8.42075C74.2035 8.39466 74.3512 8.43286 74.4807 8.53533C74.6179 8.62713 74.6996 8.75602 74.7256 8.92198C74.7517 9.08795 74.7135 9.23567 74.611 9.36515C74.5178 9.49319 74.3882 9.57025 74.2222 9.59634L69.8104 10.2898L70.2927 13.3602L75.2024 12.5884C75.3684 12.5623 75.5161 12.6005 75.6455 12.703C75.7828 12.7948 75.8644 12.9237 75.8905 13.0897C75.9166 13.2556 75.8784 13.4033 75.7759 13.5328C75.6826 13.6609 75.553 13.7379 75.3871 13.764L69.8412 14.6357Z" fill="#E5F89A"/>
</svg>
